# xmcd CD database file
#
# Track frame offsets:
#	182
#	30257
#	70827
#	100075
#	114702
#	152732
#	189552
#	208080
#
# Disc length: 3068 seconds
#
# Revision: 0
# Processed by: cddbd v1.5.2PL0 Copyright (c) Steve Scherf et al.
# Submitted via: CDex 1.51
#
DISCID=650bfa08
DTITLE=Franco Ambrosetti - Movies
DYEAR=1987
DGENRE=Jazz
TTITLE0=Summertime
TTITLE1=Yello Submarine
TTITLE2=Chan's Song (Never Said)
TTITLE3=That Old Black Magic
TTITLE4=Good Morning Heartache
TTITLE5=Magnificent Seven
TTITLE6=Ich bin von Kopf bis Fus auf Liebe eingestellt (Falling In Love Again)
TTITLE7=Be A Brave Utopist
EXTD=YEAR: 1987
EXTT0=
EXTT1=
EXTT2=
EXTT3=
EXTT4=
EXTT5=
EXTT6=
EXTT7=
PLAYORDER=
